<?xml version="1.0" encoding="utf-8"?>
<svg viewBox="0 0 400 400" xmlns="http://www.w3.org/2000/svg">
  <rect width="400" height="400" style="fill: rgb(74, 109, 167); pointer-events: none;"/>
  <path d="M 95 51.5 L 255 51.5 L 305 101.5 L 305 348.5 L 95 348.5 L 95 51.5 Z" style="stroke: rgb(0, 0, 0); fill: rgb(255, 255, 255); stroke-width: 10px; vector-effect: non-scaling-stroke; stroke-linejoin: round; pointer-events: none;"/>
  <rect x="120" y="90" width="120" style="fill: rgb(90, 106, 112); pointer-events: none;" height="10"/>
  <rect x="150" y="115" width="120" height="10" style="pointer-events: none;"/>
  <rect x="150" y="140" width="120" height="10" style="pointer-events: none;"/>
  <rect x="120" y="170" width="120" style="fill: rgb(193, 134, 38); pointer-events: none;" height="10"/>
  <rect x="150" y="195" width="120" height="10" style="pointer-events: none;"/>
  <rect x="150" y="220" width="120" height="10" style="pointer-events: none;"/>
  <rect x="120" y="250" width="120" style="fill: rgb(150, 21, 38); pointer-events: none;" height="10"/>
  <rect x="150" y="275" width="120" height="10" style="pointer-events: none;"/>
  <rect x="150" y="300" width="120" height="10" style="pointer-events: none;"/>
  <g transform="matrix(0.194999, 0, 0, 0.194999, 261.080048, 219.080292)" style="">
    <path fill="#020202" d="M422.953,176.019c0.549-0.48,1.09-0.975,1.612-1.498l21.772-21.772c12.883-12.883,12.883-33.771,0-46.654 l-40.434-40.434c-12.883-12.883-33.771-12.883-46.653,0l-21.772,21.772c-0.523,0.523-1.018,1.064-1.498,1.613L422.953,176.019z"/>
    <polygon fill="#020202" points="114.317,397.684 157.317,440.684 106.658,448.342 56,456 63.658,405.341 71.316,354.683"/>
    <polygon fill="#020202" points="349.143 125.535 336.701 113.094 324.26 100.653 81.208 343.727 168.747 430.341 411.348 187.74"/>
  </g>
</svg>